<svg xmlns="http://www.w3.org/2000/svg" width="256" height="256" viewBox="0 0 100 100"><rect width="100" height="100" rx="20" fill="#35a8c0"></rect><path fill="#fff" d="M19.09 59.50L19.09 59.50Q18.45 60.02 17.42 60.34Q16.40 60.66 15.06 60.66L15.06 60.66Q13.39 60.66 12.27 60.24Q11.15 59.82 10.70 58.74L10.70 58.74Q8.08 52.21 6.29 47.60Q4.50 42.99 3.41 39.73L3.41 39.73L3.09 39.73Q2.90 44.02 2.74 47.60Q2.58 51.18 2.45 54.61Q2.32 58.03 2.16 61.55Q2.00 65.07 1.74 69.17L1.74 69.17Q1.10 69.36 0.14 69.55Q-0.82 69.74-1.90 69.74L-1.90 69.74Q-6.19 69.74-6.19 66.54L-6.19 66.54Q-6.19 65.52-6.10 63.38Q-6.00 61.23-5.84 58.38Q-5.68 55.54-5.46 52.14Q-5.23 48.75-5.01 45.30Q-4.78 41.84-4.53 38.48Q-4.27 35.12-4.08 32.24L-4.08 32.24Q-3.57 31.60-2.19 30.93Q-0.82 30.26 1.36 30.26L1.36 30.26Q3.79 30.26 5.30 31.06Q6.80 31.86 7.57 33.71L7.57 33.71Q8.40 35.70 9.33 38.06Q10.26 40.43 11.22 42.93Q12.18 45.42 13.10 47.82Q14.03 50.22 14.86 52.34L14.86 52.34L15.12 52.34Q17.30 46.32 19.44 40.69Q21.58 35.06 23.18 31.15L23.18 31.15Q23.95 30.77 25.17 30.51Q26.38 30.26 27.66 30.26L27.66 30.26Q30.03 30.26 31.44 30.96Q32.85 31.66 33.17 33.07L33.17 33.07Q33.42 34.29 33.74 36.94Q34.06 39.60 34.38 42.99Q34.70 46.38 35.02 50.22Q35.34 54.06 35.60 57.62Q35.86 61.17 36.05 64.11Q36.24 67.06 36.30 68.72L36.30 68.72Q35.47 69.23 34.54 69.49Q33.62 69.74 32.27 69.74L32.27 69.74Q30.61 69.74 29.36 69.07Q28.11 68.40 27.98 66.54L27.98 66.54Q27.73 62.51 27.54 58.64Q27.34 54.77 27.22 51.31Q27.09 47.86 26.96 44.94Q26.83 42.03 26.77 39.92L26.77 39.92L26.45 39.92Q25.42 42.93 23.63 47.57Q21.84 52.21 19.09 59.50ZM72.40 30.45L72.40 30.45Q72.72 30.96 73.01 31.82Q73.30 32.69 73.30 33.71L73.30 33.71Q73.30 35.44 72.50 36.34Q71.70 37.23 70.29 37.23L70.29 37.23L61.46 37.23L61.46 69.23Q60.94 69.36 59.86 69.55Q58.77 69.74 57.62 69.74L57.62 69.74Q55.18 69.74 54.16 68.85Q53.14 67.95 53.14 65.84L53.14 65.84L53.14 37.23L42.38 37.23Q42.06 36.66 41.78 35.82Q41.49 34.99 41.49 33.97L41.49 33.97Q41.49 32.18 42.29 31.31Q43.09 30.45 44.50 30.45L44.50 30.45L72.40 30.45ZM84.05 30.45L105.30 30.45Q105.62 30.96 105.90 31.82Q106.19 32.69 106.19 33.71L106.19 33.71Q106.19 35.44 105.39 36.34Q104.59 37.23 103.25 37.23L103.25 37.23L87.82 37.23L87.82 47.41L103.12 47.41Q103.44 47.92 103.73 48.75Q104.02 49.58 104.02 50.61L104.02 50.61Q104.02 52.34 103.22 53.20Q102.42 54.06 101.07 54.06L101.07 54.06L87.95 54.06L87.95 69.23Q87.38 69.36 86.32 69.55Q85.26 69.74 84.11 69.74L84.11 69.74Q81.68 69.74 80.66 68.85Q79.63 67.95 79.63 65.84L79.63 65.84L79.63 34.86Q79.63 32.82 80.82 31.63Q82 30.45 84.05 30.45L84.05 30.45Z"></path></svg>